<svg xmlns="http://www.w3.org/2000/svg" aria-hidden="true" style="position:absolute;width:0;height:0;overflow:hidden">
  <defs>
    <symbol id="icon-logo" viewBox="0 0 32 32">
      <path d="M17.284 3.195c.38-.041.82.039 1.185.142.827.235 1.5.738 1.899 1.456.415.736.494 1.596.221 2.387-.347.976-1.092 1.466-2.022 1.917l.01 2.845c.665.189 1.311.403 1.915.728a5.591 5.591 0 0 1 2.733 3.45 5.531 5.531 0 0 1-.665 4.452 5.645 5.645 0 0 1-3.495 2.461c-1.935.451-3.576-.037-5.24-.959-.735.732-1.462 1.473-2.179 2.222.32.704.427 1.444.214 2.192-.208.732-.758 1.359-1.462 1.73-.789.416-1.688.492-2.553.261-.858-.229-1.58-.724-1.999-1.469-.413-.732-.448-1.589-.18-2.371.305-.888.925-1.435 1.797-1.841.939-.342 1.715-.23 2.631.078.763-.748 1.481-1.534 2.252-2.275-.847-1.548-1.122-2.866-.681-4.572-.959-.417-1.883-.903-2.843-1.321a3.43 3.43 0 0 1-1.875.954 3.617 3.617 0 0 1-2.525-.566 2.967 2.967 0 0 1-1.301-2.033c-.119-.791.105-1.662.648-2.286.56-.644 1.43-1.032 2.308-1.117a3.427 3.427 0 0 1 2.392.681c.855.667 1.101 1.496 1.205 2.484.91.52 1.951.92 2.899 1.384 1.233-1.358 2.134-1.787 3.931-2.303l.002-2.824a4.27 4.27 0 0 1-.923-.458c-.709-.489-1.175-1.225-1.29-2.04a2.916 2.916 0 0 1 .682-2.269c.594-.694 1.387-1.01 2.307-1.123zm3.963 14.047c-.183-1.943-2.014-3.383-4.1-3.225-2.104.16-3.667 1.885-3.483 3.844s2.046 3.406 4.148 3.221c2.084-.183 3.618-1.898 3.435-3.841zm6.029-4.718c.089-.004.175-.005.264.007.277.037.549.162.702.388.162.24.184.56.206.838.11 1.377.028 2.809.028 4.19 0 1.128.134 2.658-.091 3.745-.071.341-.314.505-.605.69-.111.013-.227.027-.339.021a.944.944 0 0 1-.648-.294c-.16-.176-.155-.529-.169-.749-.102-1.584-.016-3.218-.014-4.806.001-.903-.132-2.63.071-3.436.073-.288.352-.439.595-.593zm-2.55 2.212c.3.051.565.156.74.399.269.374.277 4.041.142 4.564-.074.286-.339.426-.591.563-.288-.016-.668-.04-.86-.273-.287-.346-.263-4.243-.1-4.732.095-.284.408-.404.67-.522z"/>
    </symbol>
    <symbol id="icon-logo-text" viewBox="0 0 110 32">
      <path d="M16.403.142c.434-.05.936.047 1.354.174.945.288 1.714.905 2.169 1.785.474.902.564 1.957.252 2.927-.397 1.196-1.247 1.797-2.309 2.35l.012 3.489c.759.231 1.498.495 2.187.894 1.584.919 2.669 2.467 3.123 4.23a7.205 7.205 0 0 1-.76 5.459c-.887 1.493-2.3 2.597-3.993 3.019-2.211.552-4.086-.047-5.986-1.176a156.6 156.6 0 0 0-2.489 2.725c.366.864.487 1.77.244 2.687-.237.897-.866 1.666-1.67 2.121-.901.51-1.928.603-2.916.321-.981-.281-1.805-.889-2.284-1.801-.472-.897-.511-1.949-.206-2.907.348-1.089 1.057-1.759 2.053-2.257 1.072-.419 1.958-.281 3.005.096.872-.917 1.693-1.88 2.574-2.789-.968-1.898-1.281-3.515-.778-5.606-1.096-.511-2.153-1.108-3.249-1.62-.586.61-1.301 1.028-2.142 1.169-1.003.169-2.061-.105-2.885-.694a3.671 3.671 0 0 1-1.486-2.493c-.135-.97.12-2.038.741-2.803.64-.789 1.634-1.265 2.637-1.37a3.727 3.727 0 0 1 2.734.836c.976.818 1.258 1.834 1.376 3.045 1.039.637 2.229 1.129 3.312 1.698 1.409-1.665 2.439-2.191 4.492-2.824l.002-3.463a4.767 4.767 0 0 1-1.055-.561 3.715 3.715 0 0 1-1.473-2.501 3.76 3.76 0 0 1 .779-2.782C14.446.669 15.353.282 16.404.143zm4.528 17.225a4.35 4.35 0 1 0-8.663.76 4.35 4.35 0 0 0 8.662-.76zm81.176-5.409c.708.001 1.415.011 2.124.029l-.004 3.742c.546-.424 1.14-.739 1.831-.843.933-.141 1.884.1 2.637.669.908.687 1.384 1.844 1.523 2.949.175 1.401-.154 2.749-1.019 3.866-.574.554-1.263.941-2.057 1.072-1.165.191-2.088-.216-2.998-.894l-.004.817-2.032-.003-.001-11.404zm3.64 4.904c-.632.21-1.07.51-1.378 1.118-.342.675-.365 1.508-.099 2.211.204.538.585 1.004 1.118 1.244.385.175.749.18 1.164.155.66-.249 1.103-.569 1.402-1.229.311-.689.307-1.52.011-2.214-.228-.533-.632-.963-1.177-1.174-.341-.131-.682-.149-1.042-.111zm-64.475-4.926c1.246 3.84 2.84 7.575 4.055 11.425l-2.296.003c-.269-.822-.529-1.752-.939-2.512-.268-.115-.586-.076-.873-.073a122.7 122.7 0 0 1-3.323-.012c-.348.849-.628 1.722-.903 2.596l-2.339-.002c1.221-3.833 2.677-7.617 3.996-11.42.872.019 1.749-.001 2.622-.005zm-1.308 2.839c-.483 1.374-.934 2.768-1.464 4.125l1.681-.001 1.306-.015c-.184-.518-1.25-3.88-1.524-4.109zm49.721-2.814 2.196.013c-.03 2.647-.007 5.298-.007 7.945-.001 1.093.11 2.287-.013 3.365l-.121.083h-2.058l-.004-4.889c-1.645-.046-3.303-.005-4.949-.003l.001 4.894-2.209-.004.009-11.401 2.2.005.002 4.662h4.957l-.003-4.67zm3.517 3.16c.729.021 1.46.013 2.188.017-.009 1.165-.193 4.384.089 5.347.111.38.333.728.693.913.541.278 1.09.117 1.628-.072.238-.266.443-.515.561-.859.386-1.123.18-4.006.174-5.343.694.019 1.391.004 2.085 0-.016.8-.003 1.603-.004 2.404l.011 5.834c-.683.01-1.365.005-2.047-.015l-.063-.074a1.94 1.94 0 0 0-.018-.487c-.639.277-1.209.697-1.936.712-.843.017-1.758-.245-2.363-.852-.459-.459-.739-1.076-.883-1.703-.31-1.348-.127-4.332-.113-5.824zm-29.516-.23c1.089-.085 2.224-.008 3.104.725.617.514.816 1.13.883 1.897l-1.968-.002c-.113-.21-.226-.454-.404-.619a1.505 1.505 0 0 0-1.078-.377c-.298.016-.679.135-.865.387-.113.154-.175.311-.132.503.224 1.009 2.79.884 3.607 1.419.52.341.919.951 1.034 1.56a2.289 2.289 0 0 1-.409 1.775c-.627.865-1.593 1.175-2.599 1.329-.931.056-2.011-.194-2.756-.761-.699-.532-.95-1.185-1.045-2.025.663.001 1.326-.005 1.989-.018.039.125.082.245.145.361.289.533.865.651 1.4.808.353-.081.831-.172 1.082-.457.151-.172.204-.471.14-.691-.245-.843-2.703-.943-3.556-1.468-.505-.311-.876-.764-1.011-1.349-.121-.53-.075-1.125.223-1.59.538-.84 1.28-1.185 2.216-1.408zm13.244-.002c.62-.05 1.227-.047 1.831.117.697.189 1.438.578 1.79 1.239.169.317.3.886.186 1.237-.565.122-1.255.04-1.835.033-.085-.287-.158-.509-.391-.707a1.415 1.415 0 0 0-1.062-.322c-.3.031-.685.178-.852.447-.1.16-.141.325-.078.509.362 1.068 2.535.814 3.38 1.297.538.308.988.848 1.141 1.454.164.65.056 1.372-.319 1.931-.56.835-1.449 1.149-2.388 1.331-.922.114-1.989-.082-2.759-.613-.791-.545-1.028-1.229-1.206-2.123l1.973-.015c.12.302.229.537.485.746.341.279.745.406 1.184.347.341-.045.676-.202.88-.487.133-.187.2-.414.136-.642-.247-.878-2.426-.823-3.29-1.288-.584-.315-1.046-.838-1.231-1.481a2.017 2.017 0 0 1 .196-1.599c.477-.81 1.353-1.206 2.231-1.409zm-24.289-2.032c.655.023 1.315.009 1.97.011-.007.74.004 1.48.032 2.219l1.944.001-.004 1.694-1.851-.001c.001 1.066-.243 3.817.246 4.641.382.301 1.145.189 1.609.183l-.007 1.404c.004.145.004.218-.07.344-.259.124-.524.152-.81.154-.752.007-1.791-.129-2.331-.693-1.086-1.131-.739-4.457-.734-6.035l-1.254.002.004-1.698 1.249.008.007-2.236zm16.899-.009 1.934.011c-.015.741.016 1.485.03 2.226l1.976-.004-.003 1.702-1.859-.001c.023 1.015-.226 3.85.234 4.617.494.295 1.113.216 1.669.215-.007.489.003.979.005 1.469l-.023.186c-.191.202-.486.194-.747.2-.794.019-1.891-.107-2.467-.71-1.075-1.126-.74-4.405-.731-5.978l-1.323.001c-.017-.564-.01-1.129-.015-1.692l1.318.007.004-2.249zm-41.719-1.266c.102-.005.2-.007.302.008.316.046.628.198.802.476.185.294.21.687.235 1.028.125 1.688.032 3.444.032 5.138 0 1.384.153 3.26-.104 4.592-.081.419-.359.619-.691.846-.127.015-.259.033-.387.026a1.043 1.043 0 0 1-.74-.361c-.183-.216-.177-.648-.193-.919-.116-1.942-.018-3.946-.016-5.893.001-1.107-.151-3.225.082-4.213.083-.353.402-.539.68-.727zm22.422 3.476.278-.003c.329.368.166 1.535.155 2.018-.696-.007-1.354-.035-1.899.471-1.023.949-.678 4.425-.688 5.82-.548-.005-1.617.195-2.035-.154l-.022-.346c.01-2.586-.055-5.169-.038-7.754.664.021 1.33.007 1.994.003l-.023 1.142c.123-.177.246-.366.389-.527.503-.568 1.186-.619 1.891-.669zm7.552.034 2.086.001.005 8.275-2.11-.003.019-8.273zm-32.889-.799c.343.063.645.192.845.489.308.459.316 4.955.162 5.596-.084.351-.388.522-.675.691-.33-.02-.763-.049-.983-.335-.327-.425-.3-5.203-.114-5.802.108-.348.466-.495.765-.639zm33.795-2.61a1.153 1.153 0 1 1 .27 2.29 1.153 1.153 0 0 1-.27-2.29z"/>
    </symbol>
    <symbol id="icon-logo-text-short" viewBox="0 0 96 32">
      <path d="M19.558.649c.517-.059 1.116.056 1.614.208 1.127.343 2.043 1.078 2.587 2.127a4.521 4.521 0 0 1 .3 3.49c-.473 1.426-1.488 2.144-2.755 2.803l.014 4.16c.905.276 1.786.589 2.608 1.065 1.889 1.095 3.182 2.942 3.724 5.043a8.595 8.595 0 0 1-.905 6.51c-1.057 1.78-2.743 3.095-4.761 3.599-2.636.659-4.872-.054-7.138-1.401a190.318 190.318 0 0 0-2.968 3.248c.437 1.03.582 2.111.292 3.206-.283 1.07-1.033 1.987-1.992 2.529-1.075.608-2.299.718-3.477.381-1.169-.335-2.152-1.058-2.724-2.147-.562-1.07-.61-2.324-.245-3.466.415-1.298 1.259-2.098 2.447-2.691 1.279-.5 2.336-.335 3.584.114 1.039-1.094 2.017-2.243 3.067-3.327-1.154-2.263-1.528-4.19-.928-6.684-1.306-.61-2.566-1.319-3.873-1.93-.698.727-1.553 1.226-2.555 1.394-1.195.201-2.456-.125-3.439-.827a4.38 4.38 0 0 1-1.772-2.974c-.161-1.156.143-2.429.883-3.341.763-.941 1.948-1.509 3.144-1.635a4.442 4.442 0 0 1 3.258.996c1.164.975 1.501 2.188 1.642 3.632 1.239.759 2.658 1.345 3.948 2.023 1.68-1.986 2.908-2.612 5.356-3.367l.001-4.129a5.702 5.702 0 0 1-1.257-.669 4.426 4.426 0 0 1-1.757-2.982 4.478 4.478 0 0 1 .93-3.316C17.219 1.277 18.3.815 19.554.649zm5.398 20.537a5.186 5.186 0 0 0-10.331.905 5.186 5.186 0 0 0 10.33-.905zM49.208 14.71c1.486 4.578 3.387 9.033 4.835 13.624l-2.738.002c-.321-.98-.63-2.089-1.12-2.995-.32-.137-.699-.091-1.041-.087-1.321.013-2.641.009-3.962-.013-.415 1.012-.749 2.052-1.077 3.094l-2.788-.002c1.456-4.57 3.192-9.082 4.764-13.617 1.04.023 2.086-.002 3.126-.006zm-1.561 3.384c-.577 1.639-1.114 3.3-1.745 4.918l2.005-.001 1.558-.017c-.219-.616-1.49-4.627-1.817-4.9zM75.933 18.233c1.298-.102 2.652-.01 3.701.865.735.612.973 1.348 1.053 2.262l-2.347-.003c-.135-.251-.27-.542-.482-.738a1.8 1.8 0 0 0-1.285-.45c-.356.019-.809.161-1.031.462-.134.183-.208.371-.157.599.267 1.203 3.326 1.054 4.3 1.691.62.406 1.095 1.134 1.233 1.86a2.73 2.73 0 0 1-.487 2.117c-.748 1.031-1.9 1.401-3.099 1.585-1.11.067-2.397-.231-3.286-.907-.833-.634-1.133-1.413-1.246-2.415.79.002 1.582-.006 2.372-.022.046.149.098.293.173.431.344.635 1.032.776 1.669.964.421-.097.991-.205 1.29-.545.18-.206.243-.562.167-.823-.292-1.006-3.223-1.124-4.24-1.75-.602-.371-1.045-.911-1.205-1.608-.145-.632-.09-1.342.266-1.895.641-1.002 1.527-1.413 2.642-1.679zM91.723 18.23c.739-.06 1.463-.056 2.184.139.831.225 1.714.689 2.134 1.477.202.377.357 1.056.221 1.475-.673.146-1.496.047-2.188.039-.102-.343-.188-.607-.466-.844a1.685 1.685 0 0 0-1.266-.384c-.357.037-.817.213-1.016.532-.119.191-.168.387-.093.607.432 1.273 3.023.971 4.03 1.546.641.367 1.178 1.012 1.36 1.733.196.775.066 1.636-.381 2.302-.668.995-1.728 1.37-2.847 1.587-1.099.136-2.371-.098-3.289-.731-.943-.65-1.226-1.466-1.438-2.531l2.353-.017c.143.36.273.64.578.89.406.333.888.484 1.412.414.406-.054.806-.241 1.049-.58.159-.223.238-.494.162-.765-.295-1.047-2.892-.981-3.923-1.536-.696-.376-1.248-1-1.468-1.765a2.408 2.408 0 0 1 .233-1.907c.569-.966 1.613-1.438 2.659-1.679zM62.764 15.808c.781.027 1.568.01 2.349.014a54.24 54.24 0 0 0 .038 2.645l2.318.001-.005 2.02-2.207-.001c.001 1.271-.29 4.551.294 5.533.456.359 1.365.225 1.919.219l-.008 1.674c.005.173.004.26-.084.41-.309.148-.625.181-.966.184-.897.008-2.135-.154-2.78-.826-1.295-1.348-.881-5.315-.875-7.196l-1.496.003.004-2.025 1.489.01.008-2.666zM82.912 15.797l2.306.013c-.017.883.019 1.771.036 2.655l2.355-.005-.004 2.03-2.217-.002c.027 1.21-.269 4.59.279 5.505.589.352 1.327.258 1.989.256-.008.583.004 1.168.006 1.752l-.028.221c-.228.241-.579.231-.891.239-.947.023-2.255-.127-2.942-.846-1.282-1.342-.883-5.253-.871-7.128l-1.577.001c-.02-.672-.012-1.346-.017-2.018l1.571.008.004-2.681zM33.169 14.287c.121-.006.239-.008.359.01.377.055.748.237.956.568.22.351.25.819.281 1.225.149 2.013.038 4.107.038 6.126-.001 1.649.182 3.886-.124 5.475-.096.499-.427.738-.824 1.008-.151.018-.309.039-.461.03a1.249 1.249 0 0 1-.883-.43c-.218-.257-.211-.773-.231-1.095-.138-2.315-.021-4.704-.019-7.027.001-1.32-.18-3.846.097-5.023.099-.421.479-.642.811-.866zM59.906 18.432l.331-.004c.393.439.198 1.83.185 2.406-.83-.009-1.615-.042-2.264.561-1.22 1.131-.809 5.276-.821 6.94-.654-.006-1.927.233-2.427-.183l-.026-.412c.012-3.083-.066-6.163-.046-9.246.791.025 1.586.008 2.377.004l-.028 1.361c.147-.211.293-.437.463-.629.6-.677 1.414-.738 2.255-.798zM68.91 18.473l2.487.001.006 9.866-2.516-.004.023-9.864zM29.696 17.52c.408.075.77.229 1.008.583.367.547.377 5.908.193 6.673-.101.418-.462.622-.805.823-.393-.023-.909-.058-1.172-.399-.39-.506-.358-6.203-.136-6.918.129-.415.556-.591.912-.762zM69.989 14.408a1.375 1.375 0 1 1 .323 2.731 1.375 1.375 0 0 1-.324-2.731z"/>
    </symbol>
    <symbol id="icon-burger-menu-mob" viewBox="0 0 32 32">
      <path d="M5.333 8h21.333v2.667H5.333V8zm5.334 6.667h16v2.667h-16v-2.667zm6.666 6.666h9.333V24h-9.333v-2.667z"/>
    </symbol>
    <symbol id="icon-close-burger-menu" viewBox="0 0 32 32">
      <path d="m21.589 8.459-5.657 5.656-5.656-5.656-1.885 1.885L14.047 16l-5.656 5.656 1.885 1.885 5.656-5.656 5.657 5.656 1.885-1.885L17.818 16l5.656-5.656-1.885-1.885z"/>
    </symbol>
    <symbol id="icon-right-arrow-explore-artists" viewBox="0 0 32 32">
      <path d="M7.381 29.181a1.343 1.343 0 0 0 1.378-.085l17.333-12a1.33 1.33 0 0 0 .422-1.715 1.327 1.327 0 0 0-.422-.477l-17.333-12a1.327 1.327 0 0 0-2.092 1.095v24a1.333 1.333 0 0 0 .714 1.181zM9.333 6.545 22.99 16 9.333 25.455V6.546z"/>
    </symbol>
    <symbol id="icon-right-caret-learn-more" viewBox="0 0 31 32">
      <path d="m11.52 25.527 10.24-8.96-10.24-8.96v17.92z"/>
    </symbol>
    <symbol id="icon-down-arrow-load-more" viewBox="0 0 31 32">
      <path d="m23.945 16.611-1.81-1.81-5.495 5.495V8.026h-2.56v12.27l-5.495-5.495-1.81 1.81 8.585 8.585 8.585-8.585z"/>
    </symbol>
    <symbol id="icon-left-arrow-reviews" viewBox="0 0 31 32">
      <path d="m16.265 22.612-5.495-5.495h12.27v-2.56H10.77l5.495-5.495-1.81-1.81-8.585 8.585 8.585 8.585 1.81-1.81z"/>
    </symbol>
    <symbol id="icon-right-arrow-reviews" viewBox="0 0 31 32">
      <path d="m14.455 22.612 1.81 1.81 8.585-8.585-8.585-8.585-1.81 1.81 5.495 5.495H7.68v2.56h12.27l-5.495 5.495z"/>
    </symbol>
    <symbol id="icon-dot" viewBox="0 0 32 32">
      <path d="M30.222 16.337c0 7.855-6.367 14.222-14.222 14.222S1.778 24.192 1.778 16.337C1.778 8.482 8.145 2.115 16 2.115s14.222 6.367 14.222 14.222z"/>
    </symbol>
    <symbol id="icon-instagram" viewBox="0 0 31 32">
      <path fill-rule="evenodd" clip-rule="evenodd" d="M20.687 4.37H10.344a6.465 6.465 0 0 0-6.465 6.465v10.343a6.465 6.465 0 0 0 6.465 6.465h10.343a6.465 6.465 0 0 0 6.465-6.465V10.835a6.465 6.465 0 0 0-6.465-6.465zm4.202 16.808a4.214 4.214 0 0 1-4.202 4.202H10.344a4.214 4.214 0 0 1-4.202-4.202V10.835a4.214 4.214 0 0 1 4.202-4.202h10.343a4.214 4.214 0 0 1 4.202 4.202v10.343zm-3.232-10.02a1.293 1.293 0 1 0 0-2.586 1.293 1.293 0 0 0 0 2.586zm-6.142-.97a5.818 5.818 0 1 0 5.818 5.818 5.807 5.807 0 0 0-5.818-5.818zm-3.555 5.819a3.556 3.556 0 1 0 7.112 0 3.556 3.556 0 0 0-7.112 0z"/>
    </symbol>
    <symbol id="icon-facebook" viewBox="0 0 31 32">
      <path d="M28.445 16.086c0-7.184-5.789-13.008-12.929-13.008S2.587 8.902 2.587 16.086c0 6.493 4.728 11.874 10.909 12.85v-9.09h-3.283v-3.76h3.283V13.22c0-3.26 1.93-5.061 4.884-5.061 1.415 0 2.894.254 2.894.254v3.201h-1.63c-1.606 0-2.107 1.003-2.107 2.032v2.44h3.586l-.573 3.76h-3.013v9.09c6.181-.976 10.909-6.357 10.909-12.85z"/>
    </symbol>
    <symbol id="icon-youtube" viewBox="0 0 31 32">
      <path d="M27.919 9.491a3.233 3.233 0 0 0-2.278-2.283c-2.025-.556-10.125-.565-10.125-.565s-8.099-.009-10.125.522a3.301 3.301 0 0 0-2.283 2.299c-.534 2.025-.539 6.224-.539 6.224s-.005 4.22.525 6.224a3.24 3.24 0 0 0 2.279 2.282c2.045.556 10.124.565 10.124.565s8.1.009 10.125-.521a3.25 3.25 0 0 0 2.285-2.279c.535-2.023.539-6.222.539-6.222s.026-4.221-.526-6.246zM12.925 19.579l.007-7.758 6.732 3.885-6.739 3.872z"/>
    </symbol>
  </defs>
</svg>