<svg xmlns="http://www.w3.org/2000/svg" viewBox="0 0 32 32">
  <path fill="#764191" d="M17.5 3.139c.384-.041.83.039 1.2.144.838.238 1.518.748 1.922 1.475.42.745.5 1.616.223 2.417-.352.987-1.105 1.484-2.047 1.941l.011 2.881c.673.191 1.328.408 1.939.738a5.663 5.663 0 0 1 2.767 3.492 5.6 5.6 0 0 1-.673 4.508 5.718 5.718 0 0 1-3.537 2.492c-1.96.456-3.622-.037-5.306-.97a137.41 137.41 0 0 0-2.205 2.248c.325.713.431 1.462.216 2.22-.21.741-.767 1.376-1.48 1.752-.799.421-1.709.498-2.584.264-.869-.232-1.6-.734-2.025-1.488-.418-.741-.452-1.609-.181-2.4.308-.899.936-1.453 1.819-1.864.95-.346 1.736-.233 2.664.078.772-.757 1.499-1.553 2.28-2.303-.857-1.567-1.135-2.901-.689-4.628-.971-.422-1.908-.914-2.88-1.337a3.47 3.47 0 0 1-1.898.966 3.669 3.669 0 0 1-2.556-.573c-.724-.489-1.2-1.232-1.317-2.058-.12-.8.106-1.682.656-2.314.567-.652 1.448-1.046 2.337-1.133a3.47 3.47 0 0 1 2.422.691c.865.675 1.115 1.515 1.22 2.516.921.526 1.975.931 2.934 1.4 1.248-1.375 2.162-1.809 3.981-2.331l.002-2.859a4.28 4.28 0 0 1-.934-.463c-.718-.495-1.19-1.241-1.306-2.066a2.95 2.95 0 0 1 .691-2.297c.601-.702 1.404-1.023 2.336-1.138zm-.139 10.958c-2.131.162-3.713 1.908-3.527 3.892s2.072 3.447 4.2 3.261c2.109-.185 3.663-1.921 3.478-3.888s-2.04-3.426-4.152-3.266zM27.617 12.586a1.49 1.49 0 0 1 .267.007c.28.038.556.164.71.393.164.243.186.567.208.848.111 1.394.028 2.844.028 4.243 0 1.142.136 2.691-.092 3.792-.072.346-.318.511-.612.698-.112.013-.23.027-.343.021a.952.952 0 0 1-.656-.298c-.162-.178-.157-.535-.171-.759-.103-1.604-.016-3.258-.014-4.866.001-.914-.134-2.663.072-3.479.074-.292.356-.445.603-.6zM25.036 14.825c.304.052.572.158.749.404.273.379.28 4.091.144 4.621-.075.29-.344.431-.599.57-.292-.016-.676-.04-.871-.276-.29-.351-.266-4.296-.101-4.791.096-.287.413-.409.678-.528z"/>
</svg>